<svg width="178" height="46" viewBox="0 0 178 46" fill="none" xmlns="http://www.w3.org/2000/svg">
<path d="M30.3125 28.3633V31H18.6406V28.75L24.1602 22.832C24.7148 22.2148 25.1523 21.6719 25.4727 21.2031C25.793 20.7266 26.0234 20.3008 26.1641 19.9258C26.3125 19.543 26.3867 19.1797 26.3867 18.8359C26.3867 18.3203 26.3008 17.8789 26.1289 17.5117C25.957 17.1367 25.7031 16.8477 25.3672 16.6445C25.0391 16.4414 24.6328 16.3398 24.1484 16.3398C23.6328 16.3398 23.1875 16.4648 22.8125 16.7148C22.4453 16.9648 22.1641 17.3125 21.9688 17.7578C21.7812 18.2031 21.6875 18.707 21.6875 19.2695H18.3008C18.3008 18.2539 18.543 17.3242 19.0273 16.4805C19.5117 15.6289 20.1953 14.9531 21.0781 14.4531C21.9609 13.9453 23.0078 13.6914 24.2188 13.6914C25.4141 13.6914 26.4219 13.8867 27.2422 14.2773C28.0703 14.6602 28.6953 15.2148 29.1172 15.9414C29.5469 16.6602 29.7617 17.5195 29.7617 18.5195C29.7617 19.082 29.6719 19.6328 29.4922 20.1719C29.3125 20.7031 29.0547 21.2344 28.7188 21.7656C28.3906 22.2891 27.9922 22.8203 27.5234 23.3594C27.0547 23.8984 26.5352 24.457 25.9648 25.0352L23 28.3633H30.3125ZM43.918 26.3242C43.918 27.3945 43.668 28.2969 43.168 29.0312C42.668 29.7578 41.9805 30.3086 41.1055 30.6836C40.2383 31.0508 39.2539 31.2344 38.1523 31.2344C37.0508 31.2344 36.0625 31.0508 35.1875 30.6836C34.3125 30.3086 33.6211 29.7578 33.1133 29.0312C32.6055 28.2969 32.3516 27.3945 32.3516 26.3242C32.3516 25.6055 32.4961 24.957 32.7852 24.3789C33.0742 23.793 33.4766 23.293 33.9922 22.8789C34.5156 22.457 35.1289 22.1367 35.832 21.918C36.5352 21.6914 37.3008 21.5781 38.1289 21.5781C39.2383 21.5781 40.2305 21.7734 41.1055 22.1641C41.9805 22.5547 42.668 23.1055 43.168 23.8164C43.668 24.5273 43.918 25.3633 43.918 26.3242ZM40.5195 26.1016C40.5195 25.5781 40.418 25.1289 40.2148 24.7539C40.0195 24.3711 39.7422 24.0781 39.3828 23.875C39.0234 23.6719 38.6055 23.5703 38.1289 23.5703C37.6523 23.5703 37.2344 23.6719 36.875 23.875C36.5156 24.0781 36.2344 24.3711 36.0312 24.7539C35.8359 25.1289 35.7383 25.5781 35.7383 26.1016C35.7383 26.6172 35.8359 27.0625 36.0312 27.4375C36.2344 27.8125 36.5156 28.1016 36.875 28.3047C37.2422 28.5 37.668 28.5977 38.1523 28.5977C38.6367 28.5977 39.0547 28.5 39.4062 28.3047C39.7656 28.1016 40.0391 27.8125 40.2266 27.4375C40.4219 27.0625 40.5195 26.6172 40.5195 26.1016ZM43.5547 18.4609C43.5547 19.3281 43.3242 20.0977 42.8633 20.7695C42.4023 21.4336 41.7617 21.9531 40.9414 22.3281C40.1289 22.7031 39.1992 22.8906 38.1523 22.8906C37.0977 22.8906 36.1602 22.7031 35.3398 22.3281C34.5195 21.9531 33.8789 21.4336 33.418 20.7695C32.957 20.0977 32.7266 19.3281 32.7266 18.4609C32.7266 17.4297 32.957 16.5625 33.418 15.8594C33.8867 15.1484 34.5273 14.6094 35.3398 14.2422C36.1602 13.875 37.0898 13.6914 38.1289 13.6914C39.1836 13.6914 40.1172 13.875 40.9297 14.2422C41.75 14.6094 42.3906 15.1484 42.8516 15.8594C43.3203 16.5625 43.5547 17.4297 43.5547 18.4609ZM40.1797 18.6133C40.1797 18.1523 40.0977 17.7539 39.9336 17.418C39.7695 17.0742 39.5352 16.8086 39.2305 16.6211C38.9336 16.4336 38.5664 16.3398 38.1289 16.3398C37.707 16.3398 37.3438 16.4297 37.0391 16.6094C36.7422 16.7891 36.5117 17.0508 36.3477 17.3945C36.1914 17.7305 36.1133 18.1367 36.1133 18.6133C36.1133 19.0742 36.1914 19.4805 36.3477 19.832C36.5117 20.1758 36.7461 20.4453 37.0508 20.6406C37.3555 20.8359 37.7227 20.9336 38.1523 20.9336C38.582 20.9336 38.9453 20.8359 39.2422 20.6406C39.5469 20.4453 39.7773 20.1758 39.9336 19.832C40.0977 19.4805 40.1797 19.0742 40.1797 18.6133ZM53.6328 13.9375L47.375 32.4648H44.8672L51.125 13.9375H53.6328ZM63.3359 13.9023V31H59.9609V17.793L55.9062 19.082V16.4219L62.9727 13.9023H63.3359ZM77.1172 13.9023V31H73.7422V17.793L69.6875 19.082V16.4219L76.7539 13.9023H77.1172Z" fill="#F7DD43"/>
<path d="M103.57 25.3955C103.57 25.2178 103.543 25.0583 103.488 24.917C103.438 24.7712 103.342 24.639 103.201 24.5205C103.06 24.3975 102.862 24.2767 102.606 24.1582C102.351 24.0397 102.021 23.9167 101.615 23.7891C101.164 23.6432 100.736 23.4792 100.33 23.2969C99.929 23.1146 99.5736 22.9027 99.2637 22.6611C98.9583 22.415 98.7168 22.1302 98.5391 21.8066C98.3659 21.4831 98.2793 21.1071 98.2793 20.6787C98.2793 20.264 98.3704 19.888 98.5527 19.5508C98.735 19.209 98.9902 18.9173 99.3184 18.6758C99.6465 18.4297 100.034 18.2406 100.48 18.1084C100.932 17.9762 101.426 17.9102 101.964 17.9102C102.698 17.9102 103.338 18.0423 103.885 18.3066C104.432 18.571 104.855 18.9333 105.156 19.3936C105.462 19.8538 105.614 20.3802 105.614 20.9727H103.577C103.577 20.681 103.516 20.4258 103.393 20.207C103.274 19.9837 103.092 19.8083 102.846 19.6807C102.604 19.5531 102.299 19.4893 101.93 19.4893C101.574 19.4893 101.278 19.5439 101.041 19.6533C100.804 19.7581 100.626 19.9017 100.508 20.084C100.389 20.2617 100.33 20.4622 100.33 20.6855C100.33 20.8542 100.371 21.0068 100.453 21.1436C100.54 21.2803 100.667 21.4079 100.836 21.5264C101.005 21.6449 101.212 21.7565 101.458 21.8613C101.704 21.9661 101.989 22.0687 102.312 22.1689C102.855 22.333 103.331 22.5176 103.741 22.7227C104.156 22.9277 104.502 23.1579 104.78 23.4131C105.058 23.6683 105.268 23.9577 105.409 24.2812C105.55 24.6048 105.621 24.9717 105.621 25.3818C105.621 25.8148 105.537 26.2021 105.368 26.5439C105.2 26.8857 104.956 27.1751 104.637 27.4121C104.318 27.6491 103.937 27.8291 103.495 27.9521C103.053 28.0752 102.559 28.1367 102.012 28.1367C101.52 28.1367 101.034 28.0729 100.556 27.9453C100.077 27.8132 99.6419 27.6149 99.25 27.3506C98.8626 27.0863 98.5527 26.749 98.3203 26.3389C98.0879 25.9287 97.9717 25.4434 97.9717 24.8828H100.029C100.029 25.1927 100.077 25.4548 100.173 25.6689C100.269 25.8831 100.403 26.0563 100.576 26.1885C100.754 26.3206 100.964 26.4163 101.205 26.4756C101.451 26.5348 101.72 26.5645 102.012 26.5645C102.367 26.5645 102.659 26.5143 102.887 26.4141C103.119 26.3138 103.29 26.1748 103.399 25.9971C103.513 25.8193 103.57 25.6188 103.57 25.3955ZM113.694 26.4004V28H108.396V26.4004H113.694ZM109.066 18.0469V28H107.016V18.0469H109.066ZM113.004 22.1006V23.6592H108.396V22.1006H113.004ZM113.688 18.0469V19.6533H108.396V18.0469H113.688ZM122.779 22.7979V26.7422C122.624 26.929 122.385 27.1318 122.062 27.3506C121.738 27.5648 121.321 27.7493 120.811 27.9043C120.3 28.0592 119.683 28.1367 118.958 28.1367C118.315 28.1367 117.73 28.0319 117.201 27.8223C116.673 27.6081 116.217 27.2959 115.834 26.8857C115.456 26.4756 115.164 25.9743 114.959 25.3818C114.754 24.7848 114.651 24.1035 114.651 23.3379V22.7158C114.651 21.9502 114.749 21.2689 114.945 20.6719C115.146 20.0749 115.431 19.5713 115.8 19.1611C116.169 18.751 116.609 18.4388 117.119 18.2246C117.63 18.0104 118.197 17.9033 118.821 17.9033C119.687 17.9033 120.398 18.0446 120.954 18.3271C121.51 18.6051 121.934 18.9925 122.226 19.4893C122.522 19.9814 122.704 20.5465 122.772 21.1846H120.783C120.733 20.8473 120.637 20.5534 120.496 20.3027C120.355 20.0521 120.152 19.8561 119.888 19.7148C119.628 19.5736 119.291 19.5029 118.876 19.5029C118.534 19.5029 118.229 19.5736 117.96 19.7148C117.696 19.8516 117.472 20.0544 117.29 20.3232C117.108 20.5921 116.969 20.9248 116.873 21.3213C116.777 21.7178 116.729 22.1781 116.729 22.7021V23.3379C116.729 23.8574 116.78 24.3177 116.88 24.7188C116.98 25.1152 117.128 25.4502 117.324 25.7236C117.525 25.9925 117.771 26.1953 118.062 26.332C118.354 26.4688 118.694 26.5371 119.081 26.5371C119.405 26.5371 119.674 26.5098 119.888 26.4551C120.106 26.4004 120.282 26.3343 120.414 26.2568C120.551 26.1748 120.656 26.0973 120.729 26.0244V24.2607H118.855V22.7979H122.779ZM129.93 18.0469H131.974V24.623C131.974 25.3887 131.81 26.0335 131.481 26.5576C131.158 27.0817 130.709 27.4759 130.135 27.7402C129.565 28.0046 128.909 28.1367 128.166 28.1367C127.423 28.1367 126.762 28.0046 126.184 27.7402C125.609 27.4759 125.158 27.0817 124.83 26.5576C124.507 26.0335 124.345 25.3887 124.345 24.623V18.0469H126.396V24.623C126.396 25.0697 126.466 25.4342 126.607 25.7168C126.749 25.9993 126.951 26.2067 127.216 26.3389C127.485 26.471 127.801 26.5371 128.166 26.5371C128.54 26.5371 128.856 26.471 129.116 26.3389C129.381 26.2067 129.581 25.9993 129.718 25.7168C129.859 25.4342 129.93 25.0697 129.93 24.623V18.0469ZM141.763 18.0469V28H139.712L135.713 21.3281V28H133.662V18.0469H135.713L139.719 24.7256V18.0469H141.763ZM146.603 28H144.436L144.449 26.4004H146.603C147.14 26.4004 147.594 26.2796 147.963 26.0381C148.332 25.792 148.61 25.4342 148.797 24.9648C148.988 24.4954 149.084 23.9281 149.084 23.2627V22.7773C149.084 22.2669 149.029 21.818 148.92 21.4307C148.815 21.0433 148.658 20.7174 148.448 20.4531C148.239 20.1888 147.981 19.9906 147.676 19.8584C147.37 19.7217 147.02 19.6533 146.623 19.6533H144.395V18.0469H146.623C147.288 18.0469 147.897 18.1608 148.448 18.3887C149.004 18.612 149.485 18.9333 149.891 19.3525C150.296 19.7718 150.608 20.2731 150.827 20.8564C151.05 21.4352 151.162 22.0801 151.162 22.791V23.2627C151.162 23.9691 151.05 24.6139 150.827 25.1973C150.608 25.7806 150.296 26.2819 149.891 26.7012C149.49 27.1159 149.009 27.4372 148.448 27.665C147.892 27.8883 147.277 28 146.603 28ZM145.598 18.0469V28H143.547V18.0469H145.598ZM156.549 19.749L153.842 28H151.661L155.359 18.0469H156.747L156.549 19.749ZM158.798 28L156.084 19.749L155.865 18.0469H157.267L160.985 28H158.798ZM158.675 24.2949V25.9014H153.418V24.2949H158.675Z" fill="#E1E1E6"/>
<rect x="1" y="0.5" width="176" height="45" rx="5.5" stroke="#338AF3"/>
</svg>
