<svg width="92" height="27" viewBox="0 0 92 27" fill="none" xmlns="http://www.w3.org/2000/svg">
<path d="M18.1738 11.3652V16.041C18.1738 17.8809 17.957 19.4805 17.5234 20.8398C17.1016 22.1992 16.4922 23.3242 15.6953 24.2148C14.9102 25.1055 13.9727 25.7676 12.8828 26.2012C11.793 26.6348 10.5918 26.8516 9.2793 26.8516C8.22461 26.8516 7.24023 26.7168 6.32617 26.4473C5.41211 26.166 4.58594 25.7441 3.84766 25.1816C3.12109 24.6074 2.49414 23.8926 1.9668 23.0371C1.43945 22.1816 1.03516 21.1738 0.753906 20.0137C0.472656 18.8418 0.332031 17.5176 0.332031 16.041V11.3652C0.332031 9.51367 0.542969 7.91406 0.964844 6.56641C1.39844 5.20703 2.01367 4.08203 2.81055 3.19141C3.60742 2.30078 4.55078 1.63867 5.64062 1.20508C6.73047 0.771484 7.93164 0.554688 9.24414 0.554688C10.2988 0.554688 11.2773 0.695312 12.1797 0.976562C13.0938 1.24609 13.9199 1.66797 14.6582 2.24219C15.3965 2.80469 16.0234 3.51367 16.5391 4.36914C17.0664 5.22461 17.4707 6.23828 17.752 7.41016C18.0332 8.57031 18.1738 9.88867 18.1738 11.3652ZM12.25 16.7617V10.6094C12.25 9.78906 12.2031 9.07422 12.1094 8.46484C12.0273 7.85547 11.8984 7.33984 11.7227 6.91797C11.5586 6.49609 11.3535 6.15625 11.1074 5.89844C10.8613 5.62891 10.5801 5.43555 10.2637 5.31836C9.95898 5.18945 9.61914 5.125 9.24414 5.125C8.77539 5.125 8.35352 5.22461 7.97852 5.42383C7.61523 5.61133 7.30469 5.91602 7.04688 6.33789C6.78906 6.75977 6.58984 7.32227 6.44922 8.02539C6.32031 8.72852 6.25586 9.58984 6.25586 10.6094V16.7617C6.25586 17.5938 6.29688 18.3203 6.37891 18.9414C6.47266 19.5508 6.60156 20.0723 6.76562 20.5059C6.94141 20.9277 7.15234 21.2734 7.39844 21.543C7.64453 21.8008 7.92578 21.9883 8.24219 22.1055C8.55859 22.2227 8.9043 22.2812 9.2793 22.2812C9.73633 22.2812 10.1465 22.1875 10.5098 22C10.873 21.8125 11.1836 21.5078 11.4414 21.0859C11.7109 20.6523 11.9102 20.084 12.0391 19.3809C12.1797 18.666 12.25 17.793 12.25 16.7617ZM39.0742 0.90625V4.07031L29.5117 26.5H23.2539L32.834 5.47656H20.6172V0.90625H39.0742ZM42.6602 23.7227C42.6602 22.8789 42.9648 22.1758 43.5742 21.6133C44.1836 21.0391 44.9688 20.752 45.9297 20.752C46.9023 20.752 47.6875 21.0391 48.2852 21.6133C48.8945 22.1758 49.1992 22.8789 49.1992 23.7227C49.1992 24.5664 48.8945 25.2754 48.2852 25.8496C47.6875 26.4121 46.9023 26.6934 45.9297 26.6934C44.9688 26.6934 44.1836 26.4121 43.5742 25.8496C42.9648 25.2754 42.6602 24.5664 42.6602 23.7227ZM42.6602 9.69531C42.6602 8.85156 42.9648 8.14844 43.5742 7.58594C44.1836 7.01172 44.9688 6.72461 45.9297 6.72461C46.9023 6.72461 47.6875 7.01172 48.2852 7.58594C48.8945 8.14844 49.1992 8.85156 49.1992 9.69531C49.1992 10.5391 48.8945 11.248 48.2852 11.8223C47.6875 12.3848 46.9023 12.666 45.9297 12.666C44.9688 12.666 44.1836 12.3848 43.5742 11.8223C42.9648 11.248 42.6602 10.5391 42.6602 9.69531ZM70.7676 11.3652V16.041C70.7676 17.8809 70.5508 19.4805 70.1172 20.8398C69.6953 22.1992 69.0859 23.3242 68.2891 24.2148C67.5039 25.1055 66.5664 25.7676 65.4766 26.2012C64.3867 26.6348 63.1855 26.8516 61.873 26.8516C60.8184 26.8516 59.834 26.7168 58.9199 26.4473C58.0059 26.166 57.1797 25.7441 56.4414 25.1816C55.7148 24.6074 55.0879 23.8926 54.5605 23.0371C54.0332 22.1816 53.6289 21.1738 53.3477 20.0137C53.0664 18.8418 52.9258 17.5176 52.9258 16.041V11.3652C52.9258 9.51367 53.1367 7.91406 53.5586 6.56641C53.9922 5.20703 54.6074 4.08203 55.4043 3.19141C56.2012 2.30078 57.1445 1.63867 58.2344 1.20508C59.3242 0.771484 60.5254 0.554688 61.8379 0.554688C62.8926 0.554688 63.8711 0.695312 64.7734 0.976562C65.6875 1.24609 66.5137 1.66797 67.252 2.24219C67.9902 2.80469 68.6172 3.51367 69.1328 4.36914C69.6602 5.22461 70.0645 6.23828 70.3457 7.41016C70.627 8.57031 70.7676 9.88867 70.7676 11.3652ZM64.8438 16.7617V10.6094C64.8438 9.78906 64.7969 9.07422 64.7031 8.46484C64.6211 7.85547 64.4922 7.33984 64.3164 6.91797C64.1523 6.49609 63.9473 6.15625 63.7012 5.89844C63.4551 5.62891 63.1738 5.43555 62.8574 5.31836C62.5527 5.18945 62.2129 5.125 61.8379 5.125C61.3691 5.125 60.9473 5.22461 60.5723 5.42383C60.209 5.61133 59.8984 5.91602 59.6406 6.33789C59.3828 6.75977 59.1836 7.32227 59.043 8.02539C58.9141 8.72852 58.8496 9.58984 58.8496 10.6094V16.7617C58.8496 17.5938 58.8906 18.3203 58.9727 18.9414C59.0664 19.5508 59.1953 20.0723 59.3594 20.5059C59.5352 20.9277 59.7461 21.2734 59.9922 21.543C60.2383 21.8008 60.5195 21.9883 60.8359 22.1055C61.1523 22.2227 61.498 22.2812 61.873 22.2812C62.3301 22.2812 62.7402 22.1875 63.1035 22C63.4668 21.8125 63.7773 21.5078 64.0352 21.0859C64.3047 20.6523 64.5039 20.084 64.6328 19.3809C64.7734 18.666 64.8438 17.793 64.8438 16.7617ZM91.6504 11.3652V16.041C91.6504 17.8809 91.4336 19.4805 91 20.8398C90.5781 22.1992 89.9688 23.3242 89.1719 24.2148C88.3867 25.1055 87.4492 25.7676 86.3594 26.2012C85.2695 26.6348 84.0684 26.8516 82.7559 26.8516C81.7012 26.8516 80.7168 26.7168 79.8027 26.4473C78.8887 26.166 78.0625 25.7441 77.3242 25.1816C76.5977 24.6074 75.9707 23.8926 75.4434 23.0371C74.916 22.1816 74.5117 21.1738 74.2305 20.0137C73.9492 18.8418 73.8086 17.5176 73.8086 16.041V11.3652C73.8086 9.51367 74.0195 7.91406 74.4414 6.56641C74.875 5.20703 75.4902 4.08203 76.2871 3.19141C77.084 2.30078 78.0273 1.63867 79.1172 1.20508C80.207 0.771484 81.4082 0.554688 82.7207 0.554688C83.7754 0.554688 84.7539 0.695312 85.6562 0.976562C86.5703 1.24609 87.3965 1.66797 88.1348 2.24219C88.873 2.80469 89.5 3.51367 90.0156 4.36914C90.543 5.22461 90.9473 6.23828 91.2285 7.41016C91.5098 8.57031 91.6504 9.88867 91.6504 11.3652ZM85.7266 16.7617V10.6094C85.7266 9.78906 85.6797 9.07422 85.5859 8.46484C85.5039 7.85547 85.375 7.33984 85.1992 6.91797C85.0352 6.49609 84.8301 6.15625 84.584 5.89844C84.3379 5.62891 84.0566 5.43555 83.7402 5.31836C83.4355 5.18945 83.0957 5.125 82.7207 5.125C82.252 5.125 81.8301 5.22461 81.4551 5.42383C81.0918 5.61133 80.7812 5.91602 80.5234 6.33789C80.2656 6.75977 80.0664 7.32227 79.9258 8.02539C79.7969 8.72852 79.7324 9.58984 79.7324 10.6094V16.7617C79.7324 17.5938 79.7734 18.3203 79.8555 18.9414C79.9492 19.5508 80.0781 20.0723 80.2422 20.5059C80.418 20.9277 80.6289 21.2734 80.875 21.543C81.1211 21.8008 81.4023 21.9883 81.7188 22.1055C82.0352 22.2227 82.3809 22.2812 82.7559 22.2812C83.2129 22.2812 83.623 22.1875 83.9863 22C84.3496 21.8125 84.6602 21.5078 84.918 21.0859C85.1875 20.6523 85.3867 20.084 85.5156 19.3809C85.6562 18.666 85.7266 17.793 85.7266 16.7617Z" fill="#E1E1E6"/>
</svg>
