<svg width="164" height="46" viewBox="0 0 164 46" fill="none" xmlns="http://www.w3.org/2000/svg">
<path d="M29.8125 28.3633V31H18.1406V28.75L23.6602 22.832C24.2148 22.2148 24.6523 21.6719 24.9727 21.2031C25.293 20.7266 25.5234 20.3008 25.6641 19.9258C25.8125 19.543 25.8867 19.1797 25.8867 18.8359C25.8867 18.3203 25.8008 17.8789 25.6289 17.5117C25.457 17.1367 25.2031 16.8477 24.8672 16.6445C24.5391 16.4414 24.1328 16.3398 23.6484 16.3398C23.1328 16.3398 22.6875 16.4648 22.3125 16.7148C21.9453 16.9648 21.6641 17.3125 21.4688 17.7578C21.2812 18.2031 21.1875 18.707 21.1875 19.2695H17.8008C17.8008 18.2539 18.043 17.3242 18.5273 16.4805C19.0117 15.6289 19.6953 14.9531 20.5781 14.4531C21.4609 13.9453 22.5078 13.6914 23.7188 13.6914C24.9141 13.6914 25.9219 13.8867 26.7422 14.2773C27.5703 14.6602 28.1953 15.2148 28.6172 15.9414C29.0469 16.6602 29.2617 17.5195 29.2617 18.5195C29.2617 19.082 29.1719 19.6328 28.9922 20.1719C28.8125 20.7031 28.5547 21.2344 28.2188 21.7656C27.8906 22.2891 27.4922 22.8203 27.0234 23.3594C26.5547 23.8984 26.0352 24.457 25.4648 25.0352L22.5 28.3633H29.8125ZM43.875 24.625V27.2734H31.582L31.418 25.2227L38.5312 13.9375H41.2148L38.3086 18.8008L34.7695 24.625H43.875ZM41.9414 13.9375V31H38.5664V13.9375H41.9414ZM53.1328 13.9375L46.875 32.4648H44.3672L50.625 13.9375H53.1328ZM62.8359 13.9023V31H59.4609V17.793L55.4062 19.082V16.4219L62.4727 13.9023H62.8359ZM76.6172 13.9023V31H73.2422V17.793L69.1875 19.082V16.4219L76.2539 13.9023H76.6172Z" fill="#F7DD43"/>
<path d="M103.296 26.5234L105.989 28.6562L104.697 29.7773L102.045 27.6445L103.296 26.5234ZM106.058 22.791V23.2627C106.058 24.0192 105.955 24.6982 105.75 25.2998C105.549 25.9014 105.26 26.4141 104.882 26.8379C104.504 27.2572 104.057 27.5785 103.542 27.8018C103.027 28.0251 102.455 28.1367 101.826 28.1367C101.202 28.1367 100.63 28.0251 100.11 27.8018C99.5908 27.5785 99.1419 27.2572 98.7637 26.8379C98.3854 26.4141 98.0915 25.9014 97.8818 25.2998C97.6768 24.6982 97.5742 24.0192 97.5742 23.2627V22.791C97.5742 22.0299 97.6768 21.3509 97.8818 20.7539C98.0915 20.1523 98.3831 19.6396 98.7568 19.2158C99.1305 18.792 99.5771 18.4684 100.097 18.2451C100.616 18.0218 101.188 17.9102 101.812 17.9102C102.441 17.9102 103.013 18.0218 103.528 18.2451C104.048 18.4684 104.497 18.792 104.875 19.2158C105.253 19.6396 105.545 20.1523 105.75 20.7539C105.955 21.3509 106.058 22.0299 106.058 22.791ZM103.986 23.2627V22.7773C103.986 22.2487 103.936 21.7839 103.836 21.3828C103.74 20.9818 103.599 20.6445 103.412 20.3711C103.23 20.0977 103.004 19.8926 102.735 19.7559C102.466 19.6146 102.159 19.5439 101.812 19.5439C101.466 19.5439 101.159 19.6146 100.89 19.7559C100.621 19.8926 100.395 20.0977 100.213 20.3711C100.031 20.6445 99.8916 20.9818 99.7959 21.3828C99.7002 21.7839 99.6523 22.2487 99.6523 22.7773V23.2627C99.6523 23.7868 99.7002 24.2516 99.7959 24.6572C99.8916 25.0583 100.031 25.3978 100.213 25.6758C100.4 25.9492 100.628 26.1566 100.896 26.2979C101.17 26.4391 101.48 26.5098 101.826 26.5098C102.173 26.5098 102.478 26.4391 102.742 26.2979C103.011 26.1566 103.237 25.9492 103.419 25.6758C103.606 25.3978 103.747 25.0583 103.843 24.6572C103.938 24.2516 103.986 23.7868 103.986 23.2627ZM113.037 18.0469H115.081V24.623C115.081 25.3887 114.917 26.0335 114.589 26.5576C114.265 27.0817 113.816 27.4759 113.242 27.7402C112.673 28.0046 112.016 28.1367 111.273 28.1367C110.531 28.1367 109.87 28.0046 109.291 27.7402C108.717 27.4759 108.266 27.0817 107.938 26.5576C107.614 26.0335 107.452 25.3887 107.452 24.623V18.0469H109.503V24.623C109.503 25.0697 109.574 25.4342 109.715 25.7168C109.856 25.9993 110.059 26.2067 110.323 26.3389C110.592 26.471 110.909 26.5371 111.273 26.5371C111.647 26.5371 111.964 26.471 112.224 26.3389C112.488 26.2067 112.688 25.9993 112.825 25.7168C112.966 25.4342 113.037 25.0697 113.037 24.623V18.0469ZM118.95 18.0469V28H116.906V18.0469H118.95ZM128.972 18.0469V28H126.921L122.922 21.3281V28H120.871V18.0469H122.922L126.928 24.7256V18.0469H128.972ZM135.001 18.0469V28H132.957V18.0469H135.001ZM138.063 18.0469V19.6533H129.942V18.0469H138.063ZM142.541 19.749L139.834 28H137.653L141.352 18.0469H142.739L142.541 19.749ZM144.79 28L142.076 19.749L141.857 18.0469H143.259L146.978 28H144.79ZM144.667 24.2949V25.9014H139.41V24.2949H144.667Z" fill="#E1E1E6"/>
<rect x="0.5" y="0.5" width="163" height="45" rx="5.5" stroke="#338AF3"/>
</svg>
