<svg width="316" height="411" viewBox="0 0 316 411" fill="none" xmlns="http://www.w3.org/2000/svg">
<mask id="path-1-inside-1_175_677" fill="white">
<path d="M0 5.99999C0 2.68629 2.68629 0 6 0H310C313.314 0 316 2.68629 316 6V404.818C316 408.132 313.314 410.818 310 410.818H6.00001C2.6863 410.818 0 408.132 0 404.818V5.99999Z"/>
</mask>
<path d="M0 5.99999C0 2.68629 2.68629 0 6 0H310C313.314 0 316 2.68629 316 6V404.818C316 408.132 313.314 410.818 310 410.818H6.00001C2.6863 410.818 0 408.132 0 404.818V5.99999Z" fill="#202024"/>
<path d="M105.812 60.3633V63H94.1406V60.75L99.6602 54.832C100.215 54.2148 100.652 53.6719 100.973 53.2031C101.293 52.7266 101.523 52.3008 101.664 51.9258C101.812 51.543 101.887 51.1797 101.887 50.8359C101.887 50.3203 101.801 49.8789 101.629 49.5117C101.457 49.1367 101.203 48.8477 100.867 48.6445C100.539 48.4414 100.133 48.3398 99.6484 48.3398C99.1328 48.3398 98.6875 48.4648 98.3125 48.7148C97.9453 48.9648 97.6641 49.3125 97.4688 49.7578C97.2812 50.2031 97.1875 50.707 97.1875 51.2695H93.8008C93.8008 50.2539 94.043 49.3242 94.5273 48.4805C95.0117 47.6289 95.6953 46.9531 96.5781 46.4531C97.4609 45.9453 98.5078 45.6914 99.7188 45.6914C100.914 45.6914 101.922 45.8867 102.742 46.2773C103.57 46.6602 104.195 47.2148 104.617 47.9414C105.047 48.6602 105.262 49.5195 105.262 50.5195C105.262 51.082 105.172 51.6328 104.992 52.1719C104.812 52.7031 104.555 53.2344 104.219 53.7656C103.891 54.2891 103.492 54.8203 103.023 55.3594C102.555 55.8984 102.035 56.457 101.465 57.0352L98.5 60.3633H105.812ZM119.875 56.625V59.2734H107.582L107.418 57.2227L114.531 45.9375H117.215L114.309 50.8008L110.77 56.625H119.875ZM117.941 45.9375V63H114.566V45.9375H117.941ZM129.133 45.9375L122.875 64.4648H120.367L126.625 45.9375H129.133ZM138.836 45.9023V63H135.461V49.793L131.406 51.082V48.4219L138.473 45.9023H138.836ZM152.617 45.9023V63H149.242V49.793L145.188 51.082V48.4219L152.254 45.9023H152.617Z" fill="#F7DD43"/>
<path d="M179.296 58.5234L181.989 60.6562L180.697 61.7773L178.045 59.6445L179.296 58.5234ZM182.058 54.791V55.2627C182.058 56.0192 181.955 56.6982 181.75 57.2998C181.549 57.9014 181.26 58.4141 180.882 58.8379C180.504 59.2572 180.057 59.5785 179.542 59.8018C179.027 60.0251 178.455 60.1367 177.826 60.1367C177.202 60.1367 176.63 60.0251 176.11 59.8018C175.591 59.5785 175.142 59.2572 174.764 58.8379C174.385 58.4141 174.091 57.9014 173.882 57.2998C173.677 56.6982 173.574 56.0192 173.574 55.2627V54.791C173.574 54.0299 173.677 53.3509 173.882 52.7539C174.091 52.1523 174.383 51.6396 174.757 51.2158C175.131 50.792 175.577 50.4684 176.097 50.2451C176.616 50.0218 177.188 49.9102 177.812 49.9102C178.441 49.9102 179.013 50.0218 179.528 50.2451C180.048 50.4684 180.497 50.792 180.875 51.2158C181.253 51.6396 181.545 52.1523 181.75 52.7539C181.955 53.3509 182.058 54.0299 182.058 54.791ZM179.986 55.2627V54.7773C179.986 54.2487 179.936 53.7839 179.836 53.3828C179.74 52.9818 179.599 52.6445 179.412 52.3711C179.23 52.0977 179.004 51.8926 178.735 51.7559C178.466 51.6146 178.159 51.5439 177.812 51.5439C177.466 51.5439 177.159 51.6146 176.89 51.7559C176.621 51.8926 176.395 52.0977 176.213 52.3711C176.031 52.6445 175.892 52.9818 175.796 53.3828C175.7 53.7839 175.652 54.2487 175.652 54.7773V55.2627C175.652 55.7868 175.7 56.2516 175.796 56.6572C175.892 57.0583 176.031 57.3978 176.213 57.6758C176.4 57.9492 176.628 58.1566 176.896 58.2979C177.17 58.4391 177.48 58.5098 177.826 58.5098C178.173 58.5098 178.478 58.4391 178.742 58.2979C179.011 58.1566 179.237 57.9492 179.419 57.6758C179.606 57.3978 179.747 57.0583 179.843 56.6572C179.938 56.2516 179.986 55.7868 179.986 55.2627ZM189.037 50.0469H191.081V56.623C191.081 57.3887 190.917 58.0335 190.589 58.5576C190.265 59.0817 189.816 59.4759 189.242 59.7402C188.673 60.0046 188.016 60.1367 187.273 60.1367C186.531 60.1367 185.87 60.0046 185.291 59.7402C184.717 59.4759 184.266 59.0817 183.938 58.5576C183.614 58.0335 183.452 57.3887 183.452 56.623V50.0469H185.503V56.623C185.503 57.0697 185.574 57.4342 185.715 57.7168C185.856 57.9993 186.059 58.2067 186.323 58.3389C186.592 58.471 186.909 58.5371 187.273 58.5371C187.647 58.5371 187.964 58.471 188.224 58.3389C188.488 58.2067 188.688 57.9993 188.825 57.7168C188.966 57.4342 189.037 57.0697 189.037 56.623V50.0469ZM194.95 50.0469V60H192.906V50.0469H194.95ZM204.972 50.0469V60H202.921L198.922 53.3281V60H196.871V50.0469H198.922L202.928 56.7256V50.0469H204.972ZM211.001 50.0469V60H208.957V50.0469H211.001ZM214.063 50.0469V51.6533H205.942V50.0469H214.063ZM218.541 51.749L215.834 60H213.653L217.352 50.0469H218.739L218.541 51.749ZM220.79 60L218.076 51.749L217.857 50.0469H219.259L222.978 60H220.79ZM220.667 56.2949V57.9014H215.41V56.2949H220.667Z" fill="#E1E1E6"/>
<rect x="76.5" y="32.5" width="163" height="45" rx="5.5" stroke="#338AF3"/>
<g clip-path="url(#clip0_175_677)">
<path d="M48 181C61.8071 181 73 169.807 73 156C73 142.193 61.8071 131 48 131C34.1929 131 23 142.193 23 156C23 169.807 34.1929 181 48 181Z" fill="#D80027"/>
<path d="M61.0435 151.652H52.3479V142.957H43.6521V151.652H34.9565V160.348H43.6521V169.043H52.3479V160.348H61.0435V151.652Z" fill="#F0F0F0"/>
</g>
<path d="M130.174 153.365V158.041C130.174 159.881 129.957 161.48 129.523 162.84C129.102 164.199 128.492 165.324 127.695 166.215C126.91 167.105 125.973 167.768 124.883 168.201C123.793 168.635 122.592 168.852 121.279 168.852C120.225 168.852 119.24 168.717 118.326 168.447C117.412 168.166 116.586 167.744 115.848 167.182C115.121 166.607 114.494 165.893 113.967 165.037C113.439 164.182 113.035 163.174 112.754 162.014C112.473 160.842 112.332 159.518 112.332 158.041V153.365C112.332 151.514 112.543 149.914 112.965 148.566C113.398 147.207 114.014 146.082 114.811 145.191C115.607 144.301 116.551 143.639 117.641 143.205C118.73 142.771 119.932 142.555 121.244 142.555C122.299 142.555 123.277 142.695 124.18 142.977C125.094 143.246 125.92 143.668 126.658 144.242C127.396 144.805 128.023 145.514 128.539 146.369C129.066 147.225 129.471 148.238 129.752 149.41C130.033 150.57 130.174 151.889 130.174 153.365ZM124.25 158.762V152.609C124.25 151.789 124.203 151.074 124.109 150.465C124.027 149.855 123.898 149.34 123.723 148.918C123.559 148.496 123.354 148.156 123.107 147.898C122.861 147.629 122.58 147.436 122.264 147.318C121.959 147.189 121.619 147.125 121.244 147.125C120.775 147.125 120.354 147.225 119.979 147.424C119.615 147.611 119.305 147.916 119.047 148.338C118.789 148.76 118.59 149.322 118.449 150.025C118.32 150.729 118.256 151.59 118.256 152.609V158.762C118.256 159.594 118.297 160.32 118.379 160.941C118.473 161.551 118.602 162.072 118.766 162.506C118.941 162.928 119.152 163.273 119.398 163.543C119.645 163.801 119.926 163.988 120.242 164.105C120.559 164.223 120.904 164.281 121.279 164.281C121.736 164.281 122.146 164.188 122.51 164C122.873 163.812 123.184 163.508 123.441 163.086C123.711 162.652 123.91 162.084 124.039 161.381C124.18 160.666 124.25 159.793 124.25 158.762ZM151.074 142.906V146.07L141.512 168.5H135.254L144.834 147.477H132.617V142.906H151.074ZM154.66 165.723C154.66 164.879 154.965 164.176 155.574 163.613C156.184 163.039 156.969 162.752 157.93 162.752C158.902 162.752 159.688 163.039 160.285 163.613C160.895 164.176 161.199 164.879 161.199 165.723C161.199 166.566 160.895 167.275 160.285 167.85C159.688 168.412 158.902 168.693 157.93 168.693C156.969 168.693 156.184 168.412 155.574 167.85C154.965 167.275 154.66 166.566 154.66 165.723ZM154.66 151.695C154.66 150.852 154.965 150.148 155.574 149.586C156.184 149.012 156.969 148.725 157.93 148.725C158.902 148.725 159.688 149.012 160.285 149.586C160.895 150.148 161.199 150.852 161.199 151.695C161.199 152.539 160.895 153.248 160.285 153.822C159.688 154.385 158.902 154.666 157.93 154.666C156.969 154.666 156.184 154.385 155.574 153.822C154.965 153.248 154.66 152.539 154.66 151.695ZM182.768 153.365V158.041C182.768 159.881 182.551 161.48 182.117 162.84C181.695 164.199 181.086 165.324 180.289 166.215C179.504 167.105 178.566 167.768 177.477 168.201C176.387 168.635 175.186 168.852 173.873 168.852C172.818 168.852 171.834 168.717 170.92 168.447C170.006 168.166 169.18 167.744 168.441 167.182C167.715 166.607 167.088 165.893 166.561 165.037C166.033 164.182 165.629 163.174 165.348 162.014C165.066 160.842 164.926 159.518 164.926 158.041V153.365C164.926 151.514 165.137 149.914 165.559 148.566C165.992 147.207 166.607 146.082 167.404 145.191C168.201 144.301 169.145 143.639 170.234 143.205C171.324 142.771 172.525 142.555 173.838 142.555C174.893 142.555 175.871 142.695 176.773 142.977C177.688 143.246 178.514 143.668 179.252 144.242C179.99 144.805 180.617 145.514 181.133 146.369C181.66 147.225 182.064 148.238 182.346 149.41C182.627 150.57 182.768 151.889 182.768 153.365ZM176.844 158.762V152.609C176.844 151.789 176.797 151.074 176.703 150.465C176.621 149.855 176.492 149.34 176.316 148.918C176.152 148.496 175.947 148.156 175.701 147.898C175.455 147.629 175.174 147.436 174.857 147.318C174.553 147.189 174.213 147.125 173.838 147.125C173.369 147.125 172.947 147.225 172.572 147.424C172.209 147.611 171.898 147.916 171.641 148.338C171.383 148.76 171.184 149.322 171.043 150.025C170.914 150.729 170.85 151.59 170.85 152.609V158.762C170.85 159.594 170.891 160.32 170.973 160.941C171.066 161.551 171.195 162.072 171.359 162.506C171.535 162.928 171.746 163.273 171.992 163.543C172.238 163.801 172.52 163.988 172.836 164.105C173.152 164.223 173.498 164.281 173.873 164.281C174.33 164.281 174.74 164.188 175.104 164C175.467 163.812 175.777 163.508 176.035 163.086C176.305 162.652 176.504 162.084 176.633 161.381C176.773 160.666 176.844 159.793 176.844 158.762ZM203.65 153.365V158.041C203.65 159.881 203.434 161.48 203 162.84C202.578 164.199 201.969 165.324 201.172 166.215C200.387 167.105 199.449 167.768 198.359 168.201C197.27 168.635 196.068 168.852 194.756 168.852C193.701 168.852 192.717 168.717 191.803 168.447C190.889 168.166 190.062 167.744 189.324 167.182C188.598 166.607 187.971 165.893 187.443 165.037C186.916 164.182 186.512 163.174 186.23 162.014C185.949 160.842 185.809 159.518 185.809 158.041V153.365C185.809 151.514 186.02 149.914 186.441 148.566C186.875 147.207 187.49 146.082 188.287 145.191C189.084 144.301 190.027 143.639 191.117 143.205C192.207 142.771 193.408 142.555 194.721 142.555C195.775 142.555 196.754 142.695 197.656 142.977C198.57 143.246 199.396 143.668 200.135 144.242C200.873 144.805 201.5 145.514 202.016 146.369C202.543 147.225 202.947 148.238 203.229 149.41C203.51 150.57 203.65 151.889 203.65 153.365ZM197.727 158.762V152.609C197.727 151.789 197.68 151.074 197.586 150.465C197.504 149.855 197.375 149.34 197.199 148.918C197.035 148.496 196.83 148.156 196.584 147.898C196.338 147.629 196.057 147.436 195.74 147.318C195.436 147.189 195.096 147.125 194.721 147.125C194.252 147.125 193.83 147.225 193.455 147.424C193.092 147.611 192.781 147.916 192.523 148.338C192.266 148.76 192.066 149.322 191.926 150.025C191.797 150.729 191.732 151.59 191.732 152.609V158.762C191.732 159.594 191.773 160.32 191.855 160.941C191.949 161.551 192.078 162.072 192.242 162.506C192.418 162.928 192.629 163.273 192.875 163.543C193.121 163.801 193.402 163.988 193.719 164.105C194.035 164.223 194.381 164.281 194.756 164.281C195.213 164.281 195.623 164.188 195.986 164C196.35 163.812 196.66 163.508 196.918 163.086C197.188 162.652 197.387 162.084 197.516 161.381C197.656 160.666 197.727 159.793 197.727 158.762Z" fill="#E1E1E6"/>
<g clip-path="url(#clip1_175_677)">
<path d="M278.87 133.481C275.583 131.891 271.896 131 268 131C264.104 131 260.417 131.891 257.13 133.481L254.957 156L257.13 178.519C260.417 180.109 264.104 181 268 181C271.896 181 275.583 180.109 278.87 178.519L281.043 156L278.87 133.481Z" fill="#D80027"/>
<path d="M268 147.304L270.158 153.947H277.143L271.492 158.053L273.651 164.696L268 160.59L262.349 164.696L264.508 158.053L258.857 153.947H265.841L268 147.304Z" fill="#FFDA44"/>
<path d="M257.13 133.482C248.768 137.525 243 146.089 243 156C243 165.912 248.768 174.475 257.13 178.518V133.482Z" fill="#496E2D"/>
<path d="M278.87 133.482V178.518C287.232 174.475 293 165.911 293 156C293 146.089 287.232 137.525 278.87 133.482Z" fill="#FFDA44"/>
</g>
<line x1="23.0024" y1="204.5" x2="293.001" y2="205.409" stroke="#323238"/>
<g clip-path="url(#clip2_175_677)">
<path d="M23 254.909C23 265.658 29.7844 274.822 39.3042 278.354L41.4782 254.909L39.3042 231.464C29.7844 234.996 23 244.16 23 254.909Z" fill="#6DA544"/>
<path d="M73 254.909C73 241.102 61.807 229.909 48 229.909C44.942 229.909 42.0126 230.459 39.3042 231.464V278.354C42.0126 279.359 44.942 279.909 48 279.909C61.807 279.909 73 268.716 73 254.909Z" fill="#D80027"/>
<path d="M39.3044 263.605C44.1068 263.605 48 259.711 48 254.909C48 250.107 44.1068 246.213 39.3044 246.213C34.5019 246.213 30.6088 250.107 30.6088 254.909C30.6088 259.711 34.5019 263.605 39.3044 263.605Z" fill="#FFDA44"/>
<path d="M34.4131 250.561V255.996C34.4131 258.697 36.6029 260.887 39.3044 260.887C42.0059 260.887 44.1957 258.697 44.1957 255.996V250.561H34.4131Z" fill="#D80027"/>
<path d="M39.3044 257.626C38.4054 257.626 37.674 256.895 37.674 255.996V253.822H40.9348V255.996C40.9348 256.895 40.2033 257.626 39.3044 257.626Z" fill="#F0F0F0"/>
</g>
<path d="M125.516 241.815V267.409H119.592V248.495L113.756 250.2V245.7L124.971 241.815H125.516ZM138.682 252.134H141.564C142.303 252.134 142.906 252.005 143.375 251.747C143.855 251.477 144.213 251.102 144.447 250.622C144.682 250.13 144.799 249.55 144.799 248.882C144.799 248.366 144.688 247.891 144.465 247.458C144.254 247.024 143.926 246.679 143.48 246.421C143.035 246.151 142.467 246.016 141.775 246.016C141.307 246.016 140.85 246.116 140.404 246.315C139.959 246.503 139.59 246.772 139.297 247.124C139.016 247.475 138.875 247.903 138.875 248.407H132.934C132.934 246.954 133.332 245.712 134.129 244.681C134.938 243.638 135.998 242.841 137.311 242.29C138.635 241.727 140.059 241.446 141.582 241.446C143.398 241.446 144.992 241.727 146.363 242.29C147.734 242.841 148.801 243.661 149.562 244.751C150.336 245.829 150.723 247.165 150.723 248.759C150.723 249.638 150.518 250.464 150.107 251.237C149.697 252.011 149.123 252.69 148.385 253.276C147.646 253.862 146.779 254.325 145.783 254.665C144.799 254.993 143.721 255.157 142.549 255.157H138.682V252.134ZM138.682 256.546V253.593H142.549C143.826 253.593 144.992 253.739 146.047 254.032C147.102 254.313 148.01 254.735 148.771 255.298C149.533 255.86 150.119 256.557 150.529 257.39C150.939 258.21 151.145 259.153 151.145 260.22C151.145 261.415 150.904 262.481 150.424 263.419C149.943 264.356 149.27 265.147 148.402 265.792C147.535 266.436 146.521 266.929 145.361 267.268C144.201 267.597 142.941 267.761 141.582 267.761C140.516 267.761 139.449 267.62 138.383 267.339C137.316 267.046 136.344 266.6 135.465 266.003C134.586 265.393 133.877 264.62 133.338 263.682C132.811 262.733 132.547 261.602 132.547 260.29H138.488C138.488 260.829 138.635 261.321 138.928 261.766C139.232 262.2 139.637 262.546 140.141 262.804C140.645 263.061 141.189 263.19 141.775 263.19C142.502 263.19 143.117 263.056 143.621 262.786C144.137 262.505 144.529 262.13 144.799 261.661C145.068 261.192 145.203 260.671 145.203 260.097C145.203 259.229 145.057 258.538 144.764 258.022C144.482 257.507 144.066 257.132 143.516 256.897C142.977 256.663 142.326 256.546 141.564 256.546H138.682ZM154.66 264.632C154.66 263.788 154.965 263.085 155.574 262.522C156.184 261.948 156.969 261.661 157.93 261.661C158.902 261.661 159.688 261.948 160.285 262.522C160.895 263.085 161.199 263.788 161.199 264.632C161.199 265.475 160.895 266.184 160.285 266.759C159.688 267.321 158.902 267.602 157.93 267.602C156.969 267.602 156.184 267.321 155.574 266.759C154.965 266.184 154.66 265.475 154.66 264.632ZM154.66 250.604C154.66 249.761 154.965 249.057 155.574 248.495C156.184 247.921 156.969 247.634 157.93 247.634C158.902 247.634 159.688 247.921 160.285 248.495C160.895 249.057 161.199 249.761 161.199 250.604C161.199 251.448 160.895 252.157 160.285 252.731C159.688 253.294 158.902 253.575 157.93 253.575C156.969 253.575 156.184 253.294 155.574 252.731C154.965 252.157 154.66 251.448 154.66 250.604ZM182.768 252.274V256.95C182.768 258.79 182.551 260.39 182.117 261.749C181.695 263.108 181.086 264.233 180.289 265.124C179.504 266.015 178.566 266.677 177.477 267.11C176.387 267.544 175.186 267.761 173.873 267.761C172.818 267.761 171.834 267.626 170.92 267.356C170.006 267.075 169.18 266.653 168.441 266.091C167.715 265.516 167.088 264.802 166.561 263.946C166.033 263.091 165.629 262.083 165.348 260.923C165.066 259.751 164.926 258.427 164.926 256.95V252.274C164.926 250.423 165.137 248.823 165.559 247.475C165.992 246.116 166.607 244.991 167.404 244.1C168.201 243.21 169.145 242.548 170.234 242.114C171.324 241.681 172.525 241.464 173.838 241.464C174.893 241.464 175.871 241.604 176.773 241.886C177.688 242.155 178.514 242.577 179.252 243.151C179.99 243.714 180.617 244.423 181.133 245.278C181.66 246.134 182.064 247.147 182.346 248.319C182.627 249.479 182.768 250.798 182.768 252.274ZM176.844 257.671V251.518C176.844 250.698 176.797 249.983 176.703 249.374C176.621 248.765 176.492 248.249 176.316 247.827C176.152 247.405 175.947 247.065 175.701 246.807C175.455 246.538 175.174 246.345 174.857 246.227C174.553 246.099 174.213 246.034 173.838 246.034C173.369 246.034 172.947 246.134 172.572 246.333C172.209 246.52 171.898 246.825 171.641 247.247C171.383 247.669 171.184 248.231 171.043 248.934C170.914 249.638 170.85 250.499 170.85 251.518V257.671C170.85 258.503 170.891 259.229 170.973 259.85C171.066 260.46 171.195 260.981 171.359 261.415C171.535 261.837 171.746 262.182 171.992 262.452C172.238 262.71 172.52 262.897 172.836 263.015C173.152 263.132 173.498 263.19 173.873 263.19C174.33 263.19 174.74 263.097 175.104 262.909C175.467 262.722 175.777 262.417 176.035 261.995C176.305 261.561 176.504 260.993 176.633 260.29C176.773 259.575 176.844 258.702 176.844 257.671ZM203.65 252.274V256.95C203.65 258.79 203.434 260.39 203 261.749C202.578 263.108 201.969 264.233 201.172 265.124C200.387 266.015 199.449 266.677 198.359 267.11C197.27 267.544 196.068 267.761 194.756 267.761C193.701 267.761 192.717 267.626 191.803 267.356C190.889 267.075 190.062 266.653 189.324 266.091C188.598 265.516 187.971 264.802 187.443 263.946C186.916 263.091 186.512 262.083 186.23 260.923C185.949 259.751 185.809 258.427 185.809 256.95V252.274C185.809 250.423 186.02 248.823 186.441 247.475C186.875 246.116 187.49 244.991 188.287 244.1C189.084 243.21 190.027 242.548 191.117 242.114C192.207 241.681 193.408 241.464 194.721 241.464C195.775 241.464 196.754 241.604 197.656 241.886C198.57 242.155 199.396 242.577 200.135 243.151C200.873 243.714 201.5 244.423 202.016 245.278C202.543 246.134 202.947 247.147 203.229 248.319C203.51 249.479 203.65 250.798 203.65 252.274ZM197.727 257.671V251.518C197.727 250.698 197.68 249.983 197.586 249.374C197.504 248.765 197.375 248.249 197.199 247.827C197.035 247.405 196.83 247.065 196.584 246.807C196.338 246.538 196.057 246.345 195.74 246.227C195.436 246.099 195.096 246.034 194.721 246.034C194.252 246.034 193.83 246.134 193.455 246.333C193.092 246.52 192.781 246.825 192.523 247.247C192.266 247.669 192.066 248.231 191.926 248.934C191.797 249.638 191.732 250.499 191.732 251.518V257.671C191.732 258.503 191.773 259.229 191.855 259.85C191.949 260.46 192.078 260.981 192.242 261.415C192.418 261.837 192.629 262.182 192.875 262.452C193.121 262.71 193.402 262.897 193.719 263.015C194.035 263.132 194.381 263.19 194.756 263.19C195.213 263.19 195.623 263.097 195.986 262.909C196.35 262.722 196.66 262.417 196.918 261.995C197.188 261.561 197.387 260.993 197.516 260.29C197.656 259.575 197.727 258.702 197.727 257.671Z" fill="#E1E1E6"/>
<g clip-path="url(#clip3_175_677)">
<path d="M243 254.909C243 257.967 243.55 260.896 244.555 263.605L268 264.692L291.445 263.605C292.45 260.896 293 257.967 293 254.909C293 251.851 292.45 248.922 291.445 246.213L268 245.126L244.555 246.213C243.55 248.922 243 251.851 243 254.909V254.909Z" fill="#FFDA44"/>
<path d="M268 229.909C257.251 229.909 248.087 236.693 244.555 246.213H291.445C287.913 236.693 278.749 229.909 268 229.909V229.909Z" fill="#D80027"/>
<path d="M291.445 263.605H244.555C248.087 273.125 257.251 279.909 268 279.909C278.749 279.909 287.913 273.125 291.445 263.605Z" fill="#496E2D"/>
<path d="M268 246.213L270.158 252.856H277.143L271.492 256.962L273.651 263.605L268 259.499L262.349 263.605L264.507 256.962L258.857 252.856H265.842L268 246.213Z" fill="black"/>
</g>
<line x1="23.0024" y1="303.409" x2="293.001" y2="304.318" stroke="#323238"/>
<g clip-path="url(#clip4_175_677)">
<path d="M48 378.818C61.8071 378.818 73 367.625 73 353.818C73 340.011 61.8071 328.818 48 328.818C34.1929 328.818 23 340.011 23 353.818C23 367.625 34.1929 378.818 48 378.818Z" fill="#6DA544"/>
<path d="M48 338.601L68.6521 353.818L48 369.036L27.3478 353.818L48 338.601Z" fill="#FFDA44"/>
<path d="M48 362.514C52.8024 362.514 56.6956 358.621 56.6956 353.818C56.6956 349.016 52.8024 345.123 48 345.123C43.1975 345.123 39.3044 349.016 39.3044 353.818C39.3044 358.621 43.1975 362.514 48 362.514Z" fill="#F0F0F0"/>
<path d="M43.6521 353.275C42.14 353.275 40.6808 353.505 39.3071 353.931C39.368 358.681 43.2355 362.514 48 362.514C50.9461 362.514 53.548 361.047 55.121 358.806C52.4299 355.437 48.2892 353.275 43.6521 353.275V353.275Z" fill="#0052B4"/>
<path d="M56.5345 355.484C56.6392 354.945 56.6957 354.388 56.6957 353.818C56.6957 349.016 52.8025 345.123 48.0001 345.123C44.4167 345.123 41.3405 347.291 40.0093 350.386C41.186 350.142 42.4044 350.014 43.6523 350.014C48.7028 350.014 53.2718 352.113 56.5345 355.484V355.484Z" fill="#0052B4"/>
</g>
<path d="M125.516 340.724V366.318H119.592V347.404L113.756 349.109V344.609L124.971 340.724H125.516ZM146.627 340.355H147.576V345.013H147.26C146.123 345.013 145.057 345.172 144.061 345.488C143.076 345.805 142.209 346.285 141.459 346.93C140.721 347.562 140.141 348.365 139.719 349.338C139.309 350.31 139.104 351.453 139.104 352.765V357.248C139.104 358.068 139.174 358.783 139.314 359.392C139.455 360.002 139.666 360.506 139.947 360.904C140.229 361.303 140.574 361.601 140.984 361.801C141.406 362 141.893 362.099 142.443 362.099C142.9 362.099 143.322 361.994 143.709 361.783C144.096 361.572 144.43 361.273 144.711 360.887C145.004 360.5 145.227 360.049 145.379 359.533C145.531 359.017 145.607 358.455 145.607 357.846C145.607 357.189 145.525 356.597 145.361 356.07C145.197 355.543 144.963 355.097 144.658 354.734C144.365 354.359 144.008 354.078 143.586 353.89C143.176 353.691 142.725 353.592 142.232 353.592C141.482 353.592 140.844 353.762 140.316 354.101C139.801 354.43 139.408 354.851 139.139 355.367C138.881 355.883 138.752 356.404 138.752 356.931L137.328 355.49C137.305 354.787 137.439 354.06 137.732 353.31C138.025 352.56 138.465 351.863 139.051 351.219C139.637 350.574 140.369 350.053 141.248 349.654C142.127 349.256 143.146 349.056 144.307 349.056C145.479 349.056 146.51 349.279 147.4 349.724C148.303 350.17 149.059 350.791 149.668 351.588C150.289 352.385 150.758 353.316 151.074 354.383C151.391 355.449 151.549 356.603 151.549 357.846C151.549 359.099 151.326 360.265 150.881 361.344C150.447 362.41 149.832 363.342 149.035 364.138C148.238 364.935 147.295 365.556 146.205 366.002C145.115 366.447 143.914 366.67 142.602 366.67C141.254 366.67 140.006 366.441 138.857 365.984C137.721 365.515 136.725 364.842 135.869 363.963C135.025 363.072 134.363 361.988 133.883 360.711C133.414 359.433 133.18 357.986 133.18 356.369V354.207C133.18 352.015 133.537 350.064 134.252 348.353C134.979 346.642 135.963 345.195 137.205 344.012C138.459 342.816 139.895 341.908 141.512 341.287C143.129 340.666 144.834 340.355 146.627 340.355ZM154.66 363.541C154.66 362.697 154.965 361.994 155.574 361.431C156.184 360.857 156.969 360.57 157.93 360.57C158.902 360.57 159.688 360.857 160.285 361.431C160.895 361.994 161.199 362.697 161.199 363.541C161.199 364.385 160.895 365.094 160.285 365.668C159.688 366.23 158.902 366.512 157.93 366.512C156.969 366.512 156.184 366.23 155.574 365.668C154.965 365.094 154.66 364.385 154.66 363.541ZM154.66 349.513C154.66 348.67 154.965 347.967 155.574 347.404C156.184 346.83 156.969 346.543 157.93 346.543C158.902 346.543 159.688 346.83 160.285 347.404C160.895 347.967 161.199 348.67 161.199 349.513C161.199 350.357 160.895 351.066 160.285 351.64C159.688 352.203 158.902 352.484 157.93 352.484C156.969 352.484 156.184 352.203 155.574 351.64C154.965 351.066 154.66 350.357 154.66 349.513ZM182.768 351.183V355.859C182.768 357.699 182.551 359.299 182.117 360.658C181.695 362.017 181.086 363.142 180.289 364.033C179.504 364.924 178.566 365.586 177.477 366.019C176.387 366.453 175.186 366.67 173.873 366.67C172.818 366.67 171.834 366.535 170.92 366.265C170.006 365.984 169.18 365.562 168.441 365C167.715 364.426 167.088 363.711 166.561 362.855C166.033 362 165.629 360.992 165.348 359.832C165.066 358.66 164.926 357.336 164.926 355.859V351.183C164.926 349.332 165.137 347.732 165.559 346.385C165.992 345.025 166.607 343.9 167.404 343.01C168.201 342.119 169.145 341.457 170.234 341.023C171.324 340.59 172.525 340.373 173.838 340.373C174.893 340.373 175.871 340.513 176.773 340.795C177.688 341.064 178.514 341.486 179.252 342.06C179.99 342.623 180.617 343.332 181.133 344.187C181.66 345.043 182.064 346.056 182.346 347.228C182.627 348.388 182.768 349.707 182.768 351.183ZM176.844 356.58V350.428C176.844 349.607 176.797 348.892 176.703 348.283C176.621 347.674 176.492 347.158 176.316 346.736C176.152 346.314 175.947 345.974 175.701 345.717C175.455 345.447 175.174 345.254 174.857 345.137C174.553 345.008 174.213 344.943 173.838 344.943C173.369 344.943 172.947 345.043 172.572 345.242C172.209 345.43 171.898 345.734 171.641 346.156C171.383 346.578 171.184 347.14 171.043 347.844C170.914 348.547 170.85 349.408 170.85 350.428V356.58C170.85 357.412 170.891 358.138 170.973 358.76C171.066 359.369 171.195 359.89 171.359 360.324C171.535 360.746 171.746 361.092 171.992 361.361C172.238 361.619 172.52 361.806 172.836 361.924C173.152 362.041 173.498 362.099 173.873 362.099C174.33 362.099 174.74 362.006 175.104 361.818C175.467 361.631 175.777 361.326 176.035 360.904C176.305 360.471 176.504 359.902 176.633 359.199C176.773 358.484 176.844 357.611 176.844 356.58ZM203.65 351.183V355.859C203.65 357.699 203.434 359.299 203 360.658C202.578 362.017 201.969 363.142 201.172 364.033C200.387 364.924 199.449 365.586 198.359 366.019C197.27 366.453 196.068 366.67 194.756 366.67C193.701 366.67 192.717 366.535 191.803 366.265C190.889 365.984 190.062 365.562 189.324 365C188.598 364.426 187.971 363.711 187.443 362.855C186.916 362 186.512 360.992 186.23 359.832C185.949 358.66 185.809 357.336 185.809 355.859V351.183C185.809 349.332 186.02 347.732 186.441 346.385C186.875 345.025 187.49 343.9 188.287 343.01C189.084 342.119 190.027 341.457 191.117 341.023C192.207 340.59 193.408 340.373 194.721 340.373C195.775 340.373 196.754 340.513 197.656 340.795C198.57 341.064 199.396 341.486 200.135 342.06C200.873 342.623 201.5 343.332 202.016 344.187C202.543 345.043 202.947 346.056 203.229 347.228C203.51 348.388 203.65 349.707 203.65 351.183ZM197.727 356.58V350.428C197.727 349.607 197.68 348.892 197.586 348.283C197.504 347.674 197.375 347.158 197.199 346.736C197.035 346.314 196.83 345.974 196.584 345.717C196.338 345.447 196.057 345.254 195.74 345.137C195.436 345.008 195.096 344.943 194.721 344.943C194.252 344.943 193.83 345.043 193.455 345.242C193.092 345.43 192.781 345.734 192.523 346.156C192.266 346.578 192.066 347.14 191.926 347.844C191.797 348.547 191.732 349.408 191.732 350.428V356.58C191.732 357.412 191.773 358.138 191.855 358.76C191.949 359.369 192.078 359.89 192.242 360.324C192.418 360.746 192.629 361.092 192.875 361.361C193.121 361.619 193.402 361.806 193.719 361.924C194.035 362.041 194.381 362.099 194.756 362.099C195.213 362.099 195.623 362.006 195.986 361.818C196.35 361.631 196.66 361.326 196.918 360.904C197.188 360.471 197.387 359.902 197.516 359.199C197.656 358.484 197.727 357.611 197.727 356.58Z" fill="#E1E1E6"/>
<g clip-path="url(#clip5_175_677)">
<path d="M268 378.818C281.807 378.818 293 367.625 293 353.818C293 340.011 281.807 328.818 268 328.818C254.193 328.818 243 340.011 243 353.818C243 367.625 254.193 378.818 268 378.818Z" fill="#F0F0F0"/>
<path d="M268 328.818C254.193 328.818 243 340.011 243 353.818C243 356.876 243.55 359.806 244.555 362.514H291.445C292.45 359.806 293 356.876 293 353.818C293 340.011 281.807 328.818 268 328.818Z" fill="#0052B4"/>
<path d="M268 328.818C257.251 328.818 248.087 335.603 244.555 345.123H291.445C287.913 335.603 278.749 328.818 268 328.818V328.818Z" fill="#D80027"/>
<path d="M249.465 342.949V355.42C249.465 362.514 258.732 364.688 258.732 364.688C258.732 364.688 268 362.514 268 355.42V342.949H249.465Z" fill="#D80027"/>
<path d="M253.297 345.123H264.167V340.775L261.993 341.862L258.732 338.601L255.471 341.862L253.297 340.775V345.123Z" fill="#FFDA44"/>
<path d="M265.826 357.156L258.761 350.091L251.696 357.156L254.001 359.462L258.761 354.703L263.52 359.462L265.826 357.156Z" fill="#FFDA44"/>
<path d="M265.826 350.557H262.53C262.715 350.237 262.823 349.867 262.823 349.471C262.823 348.27 261.849 347.297 260.649 347.297C259.819 347.297 259.099 347.761 258.732 348.444C258.366 347.761 257.645 347.297 256.816 347.297C255.615 347.297 254.642 348.27 254.642 349.471C254.642 349.867 254.75 350.238 254.935 350.557H251.696C251.696 351.758 252.741 352.731 253.942 352.731H253.869C253.869 353.932 254.843 354.905 256.043 354.905C256.043 355.968 256.807 356.851 257.815 357.041L256.102 360.908C256.923 361.242 257.82 361.427 258.761 361.427C259.702 361.427 260.599 361.242 261.419 360.908L259.707 357.041C260.715 356.852 261.478 355.968 261.478 354.905C262.679 354.905 263.652 353.932 263.652 352.731H263.58C264.78 352.731 265.826 351.758 265.826 350.557V350.557Z" fill="#F0F0F0"/>
</g>
<path d="M0 0H316H0ZM316 404.818C316 409.236 312.418 412.818 308 412.818H8C3.58172 412.818 0 409.236 0 404.818C0 407.027 2.68629 408.818 6 408.818H310C313.314 408.818 316 407.027 316 404.818ZM0 410.818V0V410.818ZM316 0V410.818V0Z" fill="#338AF3" mask="url(#path-1-inside-1_175_677)"/>
<defs>
<clipPath id="clip0_175_677">
<rect width="50" height="50" fill="white" transform="translate(23 131)"/>
</clipPath>
<clipPath id="clip1_175_677">
<rect width="50" height="50" fill="white" transform="translate(243 131)"/>
</clipPath>
<clipPath id="clip2_175_677">
<rect width="50" height="50" fill="white" transform="translate(23 229.909)"/>
</clipPath>
<clipPath id="clip3_175_677">
<rect width="50" height="50" fill="white" transform="translate(243 229.909)"/>
</clipPath>
<clipPath id="clip4_175_677">
<rect width="50" height="50" fill="white" transform="translate(23 328.818)"/>
</clipPath>
<clipPath id="clip5_175_677">
<rect width="50" height="50" fill="white" transform="translate(243 328.818)"/>
</clipPath>
</defs>
</svg>
